<svg width="163" height="38" viewBox="0 0 163 38" fill="none" xmlns="http://www.w3.org/2000/svg">
<path d="M7.17375 31.76C3.01375 31.76 0.93375 29.3067 0.93375 24.4C0.93375 20.3467 2.01375 17.08 4.17375 14.6C5.98708 12.4667 8.06708 11.4 10.4138 11.4C11.7204 11.4 12.7471 11.7467 13.4938 12.44C14.2671 13.1333 14.6538 14.1333 14.6538 15.44C14.6538 17.52 13.8538 19.6267 12.2538 21.76C10.6004 23.9733 8.92042 25.08 7.21375 25.08C6.22708 25.08 5.49375 24.7867 5.01375 24.2C4.56042 23.6133 4.33375 22.9067 4.33375 22.08C4.33375 21.5467 4.44042 20.96 4.65375 20.32C4.94708 19.5467 5.25375 19.16 5.57375 19.16C5.81375 19.16 5.93375 19.28 5.93375 19.52C5.93375 19.6533 5.81375 20 5.57375 20.56C5.38708 20.96 5.29375 21.3733 5.29375 21.8C5.29375 22.36 5.46708 22.8133 5.81375 23.16C6.18708 23.48 6.66708 23.64 7.25375 23.64C8.82708 23.64 10.3071 22.64 11.6938 20.64C13.0004 18.7733 13.6538 16.92 13.6538 15.08C13.6538 14.12 13.4138 13.3867 12.9338 12.88C12.4804 12.3467 11.8538 12.08 11.0538 12.08C9.16042 12.08 7.26708 13.3867 5.37375 16C3.42708 18.8 2.50708 21.88 2.61375 25.24C2.66708 26.7333 3.06708 28 3.81375 29.04C4.58708 30.08 5.61375 30.6 6.89375 30.6C10.4938 30.6 15.0938 25.8133 20.6938 16.24C17.7604 15.36 16.2938 13.6267 16.2938 11.04C16.2938 9.30667 16.7604 7.74667 17.6938 6.36C18.6271 4.94667 19.9071 3.76 21.5338 2.8C23.7471 1.52 25.9071 0.88 28.0138 0.88C29.1604 0.88 30.2671 1.02667 31.3338 1.32C32.4271 1.58667 33.3338 2.02667 34.0538 2.64C34.7738 3.22667 35.1338 4 35.1338 4.96C35.1338 5.28 35.0538 5.58667 34.8938 5.88C34.7604 6.17333 34.6138 6.32 34.4538 6.32C34.4804 6.32 34.3604 6.24 34.0938 6.08C33.8271 5.89333 33.5338 5.8 33.2138 5.8C30.9471 5.8 27.8404 9.17333 23.8938 15.92C24.0004 15.9467 24.1071 15.96 24.2138 15.96C24.3204 15.96 24.4271 15.96 24.5338 15.96C25.2004 15.96 25.8404 15.84 26.4538 15.6C27.0938 15.36 27.6138 15.0267 28.0138 14.6C28.4404 14.1733 28.6538 13.6933 28.6538 13.16C28.6538 12.9467 28.6004 12.7333 28.4938 12.52C28.4138 12.28 28.3738 12.1333 28.3738 12.08C28.3738 11.8667 28.4804 11.76 28.6938 11.76C28.8004 11.76 28.9071 11.8 29.0138 11.88C29.6271 12.3333 29.9338 12.8933 29.9338 13.56C29.9338 14.2267 29.6804 14.8133 29.1738 15.32C28.6671 15.8267 28.0138 16.2267 27.2138 16.52C26.4404 16.7867 25.6538 16.92 24.8538 16.92C24.4004 16.92 23.9471 16.88 23.4938 16.8C21.6538 20.1867 19.4138 23.3067 16.7738 26.16C13.2538 29.8933 10.0538 31.76 7.17375 31.76ZM21.3738 15.24C22.8404 12.84 24.6271 10.56 26.7338 8.4C29.2671 5.78667 31.3071 4.48 32.8538 4.48C33.2538 4.48 33.6004 4.57333 33.8938 4.76C33.8671 4.25333 33.6271 3.8 33.1738 3.4C32.7204 2.97333 32.1738 2.64 31.5338 2.4C30.9204 2.16 30.3338 2.02667 29.7738 2C28.0138 1.92 26.1471 2.32 24.1738 3.2C22.4938 3.94666 21.1071 5.08 20.0138 6.6C18.9471 8.09333 18.4138 9.82667 18.4138 11.8C18.4138 13.72 19.4004 14.8667 21.3738 15.24ZM33.3406 29.08C32.6206 29.08 32.114 28.88 31.8206 28.48C31.5273 28.0533 31.3806 27.5333 31.3806 26.92C31.3806 25.3733 31.914 23.72 32.9806 21.96L35.5406 17.8C33.7273 19.1333 31.9273 20.8 30.1406 22.8C29.6606 23.3333 29.114 23.96 28.5006 24.68C27.914 25.4 27.2606 26.2267 26.5406 27.16C25.5806 28.4133 25.0073 29.04 24.8206 29.04C24.4473 29.04 24.1406 28.88 23.9006 28.56C23.6606 28.2133 23.5406 27.9067 23.5406 27.64C23.5406 27.4267 23.6073 27.04 23.7406 26.48C23.874 25.8933 24.034 25.3867 24.2206 24.96C24.4073 24.5067 24.594 24.0667 24.7806 23.64C24.994 23.1867 25.194 22.7467 25.3806 22.32L22.9806 24.84C22.9273 24.8933 22.7673 25.0533 22.5006 25.32C22.234 25.5867 22.0206 25.72 21.8606 25.72C21.7273 25.72 21.6606 25.6267 21.6606 25.44C21.6606 25.3867 21.6873 25.32 21.7406 25.24C21.7673 25.1333 21.8473 25.0133 21.9806 24.88C22.3806 24.48 22.794 24.0533 23.2206 23.6C23.6473 23.1467 24.0873 22.6267 24.5406 22.04C24.7806 21.7467 25.1406 21.3067 25.6206 20.72C26.1006 20.1067 26.6206 19.4533 27.1806 18.76C27.7673 18.0667 28.314 17.4267 28.8206 16.84C28.954 16.6533 29.1006 16.5333 29.2606 16.48C29.4206 16.4 29.5273 16.36 29.5806 16.36C30.3006 16.36 30.6606 16.64 30.6606 17.2C30.6606 17.36 30.6206 17.52 30.5406 17.68C28.1406 20.9867 26.7006 23.5067 26.2206 25.24C29.314 22.1467 31.794 19.8267 33.6606 18.28C35.554 16.7067 36.9006 15.92 37.7006 15.92C38.1273 15.92 38.4473 15.9867 38.6606 16.12C38.9006 16.2533 39.0206 16.5067 39.0206 16.88C39.0206 17.0133 39.0073 17.12 38.9806 17.2C38.9006 17.3867 38.354 18.1333 37.3406 19.44C36.7273 20.1867 36.1806 20.8667 35.7006 21.48C35.2473 22.0933 34.874 22.6267 34.5806 23.08C34.1006 23.8267 33.7406 24.5333 33.5006 25.2C33.2606 25.84 33.1406 26.3867 33.1406 26.84C33.1406 27.0267 33.1673 27.2533 33.2206 27.52C33.274 27.7867 33.434 27.92 33.7006 27.92C34.314 27.92 35.274 27.3867 36.5806 26.32C37.194 25.7867 37.7673 25.2533 38.3006 24.72C38.834 24.16 39.3406 23.6133 39.8206 23.08C39.9273 22.9733 40.1006 22.7733 40.3406 22.48C40.5806 22.16 40.7273 22 40.7806 22C40.8873 22 40.9406 22.1067 40.9406 22.32C40.9406 22.4267 40.874 22.6133 40.7406 22.88C40.634 23.12 40.514 23.3067 40.3806 23.44C40.0873 23.7867 39.6473 24.2667 39.0606 24.88C38.5006 25.4933 37.8606 26.12 37.1406 26.76C36.4473 27.4 35.7673 27.9467 35.1006 28.4C34.434 28.8533 33.8473 29.08 33.3406 29.08ZM49.4734 29.08C48.7534 29.08 48.2468 28.88 47.9534 28.48C47.6601 28.0533 47.5134 27.5333 47.5134 26.92C47.5134 25.3733 48.0468 23.72 49.1134 21.96L51.6734 17.8C49.8601 19.1333 48.0601 20.8 46.2734 22.8C45.7934 23.3333 45.2468 23.96 44.6334 24.68C44.0468 25.4 43.3934 26.2267 42.6734 27.16C41.7134 28.4133 41.1401 29.04 40.9534 29.04C40.5801 29.04 40.2734 28.88 40.0334 28.56C39.7934 28.2133 39.6734 27.9067 39.6734 27.64C39.6734 27.4267 39.7401 27.04 39.8734 26.48C40.0068 25.8933 40.1668 25.3867 40.3534 24.96C40.5401 24.5067 40.7268 24.0667 40.9134 23.64C41.1268 23.1867 41.3268 22.7467 41.5134 22.32L39.1134 24.84C39.0601 24.8933 38.9001 25.0533 38.6334 25.32C38.3668 25.5867 38.1534 25.72 37.9934 25.72C37.8601 25.72 37.7934 25.6267 37.7934 25.44C37.7934 25.3867 37.8201 25.32 37.8734 25.24C37.9001 25.1333 37.9801 25.0133 38.1134 24.88C38.5134 24.48 38.9268 24.0533 39.3534 23.6C39.7801 23.1467 40.2201 22.6267 40.6734 22.04C40.9134 21.7467 41.2734 21.3067 41.7534 20.72C42.2334 20.1067 42.7534 19.4533 43.3134 18.76C43.9001 18.0667 44.4468 17.4267 44.9534 16.84C45.0868 16.6533 45.2334 16.5333 45.3934 16.48C45.5534 16.4 45.6601 16.36 45.7134 16.36C46.4334 16.36 46.7934 16.64 46.7934 17.2C46.7934 17.36 46.7534 17.52 46.6734 17.68C44.2734 20.9867 42.8334 23.5067 42.3534 25.24C45.4468 22.1467 47.9268 19.8267 49.7934 18.28C51.6868 16.7067 53.0334 15.92 53.8334 15.92C54.2601 15.92 54.5801 15.9867 54.7934 16.12C55.0334 16.2533 55.1534 16.5067 55.1534 16.88C55.1534 17.0133 55.1401 17.12 55.1134 17.2C55.0334 17.3867 54.4868 18.1333 53.4734 19.44C52.8601 20.1867 52.3134 20.8667 51.8334 21.48C51.3801 22.0933 51.0068 22.6267 50.7134 23.08C50.2334 23.8267 49.8734 24.5333 49.6334 25.2C49.3934 25.84 49.2734 26.3867 49.2734 26.84C49.2734 27.0267 49.3001 27.2533 49.3534 27.52C49.4068 27.7867 49.5668 27.92 49.8334 27.92C50.4468 27.92 51.4068 27.3867 52.7134 26.32C53.3268 25.7867 53.9001 25.2533 54.4334 24.72C54.9668 24.16 55.4734 23.6133 55.9534 23.08C56.0601 22.9733 56.2334 22.7733 56.4734 22.48C56.7134 22.16 56.8601 22 56.9134 22C57.0201 22 57.0734 22.1067 57.0734 22.32C57.0734 22.4267 57.0068 22.6133 56.8734 22.88C56.7668 23.12 56.6468 23.3067 56.5134 23.44C56.2201 23.7867 55.7801 24.2667 55.1934 24.88C54.6334 25.4933 53.9934 26.12 53.2734 26.76C52.5801 27.4 51.9001 27.9467 51.2334 28.4C50.5668 28.8533 49.9801 29.08 49.4734 29.08ZM57.1263 29.08C56.4596 29.08 55.9396 28.7733 55.5663 28.16C55.1929 27.52 55.0062 26.9067 55.0062 26.32C55.0062 24.72 56.1663 22.48 58.4863 19.6C60.8329 16.6933 62.7263 15.24 64.1663 15.24C65.5263 15.24 66.2063 15.96 66.2063 17.4C66.2063 17.6133 66.1796 17.84 66.1263 18.08C66.0996 18.32 66.0596 18.5733 66.0063 18.84C66.0596 18.92 66.1929 18.96 66.4063 18.96C67.1263 18.96 67.9796 18.7067 68.9663 18.2C68.9396 18.6533 67.8863 19.3067 65.8063 20.16C66.0996 21.04 65.2196 22.72 63.1663 25.2C61.0596 27.7867 59.2596 29.08 57.7663 29.08H57.1263ZM57.8463 27.88C58.9929 27.88 60.4596 26.8267 62.2463 24.72C63.9796 22.6667 64.8463 21.1867 64.8463 20.28C64.4196 20.04 63.8863 19.4267 63.2463 18.44C62.3396 18.44 61.0329 19.5333 59.3263 21.72C57.6463 23.8533 56.8329 25.4933 56.8863 26.64C56.9129 27.4667 57.2329 27.88 57.8463 27.88ZM67.9762 29.12C67.8163 29.12 67.5896 29.0533 67.2963 28.92C67.0029 28.76 66.7363 28.5867 66.4962 28.4C66.2562 28.1867 66.1229 28 66.0962 27.84C66.0696 27.6267 66.2162 27.0267 66.5362 26.04C66.8296 25.0267 67.3096 23.6533 67.9762 21.92C68.6429 20.16 69.2029 18.8 69.6563 17.84C70.1096 16.88 70.4429 16.3067 70.6563 16.12C70.7629 16.0133 70.9096 15.96 71.0963 15.96C71.3896 15.96 71.6696 16.0933 71.9362 16.36C72.2029 16.6 72.3496 16.8933 72.3763 17.24C72.3763 17.2667 71.7096 18.84 70.3763 21.96C69.0696 24.9733 68.4563 26.7733 68.5363 27.36C69.7096 26.9867 71.6696 25.6667 74.4163 23.4C76.0696 22.0133 77.2563 20.76 77.9763 19.64C78.7229 18.4933 79.0963 17.4667 79.0963 16.56C79.0963 16.0267 78.9629 15.5467 78.6963 15.12C78.4563 14.6667 78.0029 14.2933 77.3363 14C77.1496 13.92 77.0563 13.8 77.0563 13.64C77.0563 13.4 77.2029 13.28 77.4963 13.28C78.2696 13.28 78.9363 13.5333 79.4963 14.04C80.0829 14.5467 80.3763 15.3067 80.3763 16.32C80.3763 17.3867 79.9229 18.6 79.0163 19.96C78.1096 21.2933 76.8163 22.72 75.1363 24.24C73.6696 25.5467 72.3363 26.6133 71.1363 27.44C69.9629 28.2667 68.9096 28.8267 67.9762 29.12ZM81.3675 29.2C80.7275 29.2 80.0875 28.9733 79.4475 28.52C78.8075 28.0667 78.4475 27.5333 78.3675 26.92C78.1008 24.8667 79.3942 22.4267 82.2475 19.6C85.0742 16.7733 87.6208 15.36 89.8875 15.36C90.5008 15.36 90.9808 15.5067 91.3275 15.8C91.5142 15.9867 91.6475 16.24 91.7275 16.56C91.8342 16.88 91.9142 17.04 91.9675 17.04C92.0742 17.04 92.1675 17.0267 92.2475 17C92.3275 16.9467 92.4208 16.92 92.5275 16.92C92.8475 16.92 93.1275 17.04 93.3675 17.28C93.6075 17.52 93.7408 17.7333 93.7675 17.92C93.7942 17.9733 92.9408 19.2933 91.2075 21.88C89.4742 24.4133 88.6875 26.1333 88.8475 27.04C88.9808 27.6533 89.2742 27.96 89.7275 27.96C91.1142 27.96 93.6475 25.6667 97.3275 21.08C97.4075 20.9733 97.4875 20.92 97.5675 20.92C97.7008 20.92 97.7675 21.0133 97.7675 21.2C97.7675 21.4133 97.6475 21.68 97.4075 22C94.0208 26.56 91.4208 28.84 89.6075 28.84C89.3675 28.84 89.1408 28.8 88.9275 28.72C87.7542 28.2667 87.1675 27.3867 87.1675 26.08C87.1675 25.6267 87.2208 25.1733 87.3275 24.72L84.8475 27.12C84.1008 27.8667 83.4208 28.4 82.8075 28.72C82.2208 29.04 81.7408 29.2 81.3675 29.2ZM81.0075 28.32C82.5542 28.32 84.6608 26.6267 87.3275 23.24L91.5675 17.4C91.3542 17.0267 91.0075 16.84 90.5275 16.84C88.9008 16.84 86.7008 18.1467 83.9275 20.76C81.0475 23.4267 79.7542 25.6267 80.0475 27.36C80.1808 28 80.5008 28.32 81.0075 28.32ZM106.332 32.8C105.239 32.8 103.879 32.1467 102.252 30.84C101.105 30.6533 100.119 30.4 99.2919 30.08C98.4919 29.7867 97.8252 29.4267 97.2919 29C96.5452 28.36 95.8919 27.5067 95.3319 26.44C94.7719 25.3733 94.4919 24.3467 94.4919 23.36C94.4919 22.6133 94.6652 21.9467 95.0119 21.36C95.8119 19.9467 96.8252 19.24 98.0519 19.24C98.9852 19.24 99.5319 20.0267 99.6919 21.6C99.8785 23.0667 100.025 24.24 100.132 25.12C100.265 25.9733 100.372 26.5333 100.452 26.8C100.852 28.1067 101.532 29.2133 102.492 30.12C103.612 30.36 104.825 30.48 106.132 30.48C109.012 30.48 111.772 29.9333 114.412 28.84C115.532 28.36 116.625 27.7333 117.692 26.96C118.759 26.1867 119.639 25.3333 120.332 24.4C121.025 23.4667 121.372 22.56 121.372 21.68C121.372 20.4267 120.265 19.4533 118.052 18.76L111.012 17.16C109.572 16.84 108.412 16.28 107.532 15.48C106.679 14.6533 106.252 13.72 106.252 12.68C106.252 11.08 107.252 9.48 109.252 7.88C110.265 7.05333 111.452 6.36 112.812 5.8C114.172 5.21333 115.599 4.77333 117.092 4.48C118.612 4.16 120.065 4 121.452 4C123.425 4 125.105 4.30667 126.492 4.92C127.905 5.53333 128.785 6.42666 129.132 7.6C129.212 7.86667 129.252 8.16 129.252 8.48C129.252 10.1067 128.439 11.24 126.812 11.88C125.825 12.28 124.985 12.48 124.292 12.48C123.865 12.48 123.532 12.4 123.292 12.24C123.239 12.1867 123.212 12.12 123.212 12.04C123.212 11.8533 123.585 11.7467 124.332 11.72C124.785 11.6933 125.159 11.6533 125.452 11.6C125.745 11.5467 125.959 11.4933 126.092 11.44C127.105 10.9067 127.612 10.12 127.612 9.08C127.612 8.54667 127.465 7.98667 127.172 7.4C126.345 5.88 124.279 5.12 120.972 5.12C119.772 5.12 118.532 5.25333 117.252 5.52C115.972 5.76 114.759 6.13333 113.612 6.64C112.465 7.12 111.492 7.73333 110.692 8.48C109.305 9.76 108.612 10.9067 108.612 11.92C108.612 12.6933 108.985 13.3867 109.732 14C110.505 14.5867 111.665 15.0267 113.212 15.32L117.932 16.2C119.745 16.5467 121.212 17.0667 122.332 17.76C123.452 18.4267 124.012 19.4533 124.012 20.84C124.012 22.0667 123.705 23.2133 123.092 24.28C122.479 25.3467 121.652 26.3067 120.612 27.16C119.599 27.9867 118.439 28.68 117.132 29.24C114.172 30.5467 110.679 31.2 106.652 31.2C106.145 31.2 105.639 31.1867 105.132 31.16C104.625 31.1333 104.132 31.0933 103.652 31.04C104.025 31.2533 104.492 31.4667 105.052 31.68C105.639 31.8933 106.305 32.0933 107.052 32.28C107.132 32.3067 107.172 32.36 107.172 32.44C107.172 32.68 106.892 32.8 106.332 32.8ZM101.052 29.72C100.332 28.92 99.7719 28.0933 99.3719 27.24C98.7852 25.9067 98.3452 24.2667 98.0519 22.32C97.8385 20.9067 97.6119 20.2 97.3719 20.2C97.1585 20.2 96.8652 20.36 96.4919 20.68C96.1452 21 95.9719 21.68 95.9719 22.72C95.9719 24.7467 96.6919 26.5067 98.1319 28C98.8519 28.7467 99.8252 29.32 101.052 29.72ZM126.814 29.08C126.147 29.08 125.627 28.7733 125.254 28.16C124.88 27.52 124.694 26.9067 124.694 26.32C124.694 24.72 125.854 22.48 128.174 19.6C130.52 16.6933 132.414 15.24 133.854 15.24C135.214 15.24 135.894 15.96 135.894 17.4C135.894 17.6133 135.867 17.84 135.814 18.08C135.787 18.32 135.747 18.5733 135.694 18.84C135.747 18.92 135.88 18.96 136.094 18.96C136.814 18.96 137.667 18.7067 138.654 18.2C138.627 18.6533 137.574 19.3067 135.494 20.16C135.787 21.04 134.907 22.72 132.854 25.2C130.747 27.7867 128.947 29.08 127.454 29.08H126.814ZM127.534 27.88C128.68 27.88 130.147 26.8267 131.934 24.72C133.667 22.6667 134.534 21.1867 134.534 20.28C134.107 20.04 133.574 19.4267 132.934 18.44C132.027 18.44 130.72 19.5333 129.014 21.72C127.334 23.8533 126.52 25.4933 126.574 26.64C126.6 27.4667 126.92 27.88 127.534 27.88ZM129.544 37.2C128.744 37.2 128.064 36.8667 127.504 36.2C126.944 35.5333 126.65 34.8133 126.624 34.04C126.704 33.72 126.824 33.56 126.984 33.56C127.144 33.56 127.237 33.76 127.264 34.16C127.29 34.5867 127.504 35 127.904 35.4C128.304 35.8 128.704 36 129.104 36C131.37 36 133.437 34.6 135.304 31.8C135.81 31.0533 136.437 29.9733 137.184 28.56C137.93 27.12 138.757 25.32 139.664 23.16L141.824 17.96C139.157 17.9333 137.824 17.6133 137.824 17C137.824 16.7067 137.957 16.48 138.224 16.32C138.49 16.1333 138.704 16.04 138.864 16.04C138.89 16.04 139.224 16.0533 139.864 16.08C140.504 16.08 141.424 16.0933 142.624 16.12C145.237 10.3067 147.637 7.4 149.824 7.4C150.677 7.4 151.517 7.8 152.344 8.6C152.557 8.81333 152.664 9.09333 152.664 9.44C152.664 10.2667 152.424 10.68 151.944 10.68C151.81 10.68 151.677 10.5733 151.544 10.36C151.437 10.1733 151.264 10.0267 151.024 9.92C150.784 9.78667 150.557 9.72 150.344 9.72C149.544 9.72 148.837 10.0267 148.224 10.64C147.637 11.2267 147.077 12 146.544 12.96C146.037 13.92 145.49 14.9733 144.904 16.12H145.384C148.29 16.12 150.224 16.08 151.184 16C151.29 16.0267 151.344 16.08 151.344 16.16C151.344 16.3733 150.397 16.6667 148.504 17.04C147.757 17.1467 147.024 17.2667 146.304 17.4C145.584 17.5333 144.85 17.6667 144.104 17.8C143.757 18.5467 143.33 19.44 142.824 20.48C142.317 21.4933 141.744 22.6267 141.104 23.88C139.85 26.2267 138.824 28.0933 138.024 29.48C137.224 30.8667 136.664 31.7867 136.344 32.24C134.024 35.5467 131.757 37.2 129.544 37.2ZM148.511 29.24C147.658 29.24 146.978 29.04 146.471 28.64C145.991 28.2133 145.751 27.4667 145.751 26.4C145.751 25.7867 145.938 25.0133 146.311 24.08C146.685 23.12 147.151 22.0933 147.711 21C148.271 19.9067 148.831 18.8267 149.391 17.76C149.045 17.84 148.738 17.88 148.471 17.88C147.671 17.88 147.271 17.5733 147.271 16.96C147.271 16.6667 147.378 16.44 147.591 16.28C147.831 16.12 148.045 16.0267 148.231 16C148.231 16 148.258 16 148.311 16C148.391 16 148.485 15.9867 148.591 15.96H150.911C151.391 15.3467 151.885 14.6933 152.391 14C153.111 13.0933 153.685 12.56 154.111 12.4H154.231C154.418 12.4 154.685 12.4933 155.031 12.68C155.458 12.92 155.671 13.16 155.671 13.4C155.671 13.7467 155.031 14.64 153.751 16.08C153.991 16.1067 154.338 16.12 154.791 16.12C155.245 16.12 155.805 16.12 156.471 16.12C156.791 16.12 157.245 16.12 157.831 16.12C158.445 16.12 159.071 16.12 159.711 16.12C160.378 16.0933 160.951 16.08 161.431 16.08C161.911 16.0533 162.178 16.04 162.231 16.04C162.311 16.0667 162.351 16.1067 162.351 16.16C162.351 16.4 160.778 16.72 157.631 17.12C155.845 17.36 154.471 17.5467 153.511 17.68C152.578 17.8133 152.071 17.8933 151.991 17.92C151.618 18.24 151.165 18.7867 150.631 19.56C150.098 20.3333 149.565 21.2 149.031 22.16C148.498 23.12 148.045 24.04 147.671 24.92C147.325 25.7733 147.151 26.44 147.151 26.92C147.151 27.3467 147.311 27.7067 147.631 28C147.951 28.2667 148.471 28.4 149.191 28.4C149.671 28.4 150.245 28.2933 150.911 28.08C151.578 27.8667 152.205 27.6267 152.791 27.36C153.405 27.0667 153.845 26.84 154.111 26.68C154.805 26.2533 155.565 25.6933 156.391 25C157.245 24.28 158.085 23.4667 158.911 22.56C159.285 22.1867 159.538 22 159.671 22C159.751 22 159.791 22.0533 159.791 22.16C159.791 22.3733 159.591 22.72 159.191 23.2C158.551 23.9733 157.831 24.72 157.031 25.44C156.258 26.1333 155.391 26.7733 154.431 27.36C153.338 28.0267 152.285 28.5067 151.271 28.8C150.285 29.0933 149.365 29.24 148.511 29.24Z" fill="white"/>
</svg>
