<svg width="20" height="27" viewBox="0 0 20 27" fill="none" xmlns="http://www.w3.org/2000/svg">
<path d="M20 25.6635L20 1.62065C19.9992 1.37723 19.9321 1.13862 19.8058 0.930517C19.6795 0.722412 19.4989 0.552691 19.2833 0.439617C19.0677 0.326544 18.8254 0.274401 18.5824 0.288805C18.3394 0.303207 18.105 0.38361 17.9043 0.521357L0.539963 12.5428C-0.179988 13.041 -0.179988 14.2405 0.539963 14.74L17.9043 26.7615C18.1045 26.9006 18.3391 26.9822 18.5825 26.9974C18.8259 27.0126 19.0688 26.9608 19.2849 26.8476C19.5009 26.7344 19.6818 26.5642 19.8078 26.3555C19.9339 26.1467 20.0004 25.9074 20 25.6635Z" fill="url(#paint0_linear_35_345)"/>
<defs>
<linearGradient id="paint0_linear_35_345" x1="20" y1="13.6432" x2="0" y2="13.6432" gradientUnits="userSpaceOnUse">
<stop stop-color="#333333"/>
<stop offset="1" stop-color="#999999"/>
</linearGradient>
</defs>
</svg>
