<svg width="26" height="34" viewBox="0 0 26 34" fill="none" xmlns="http://www.w3.org/2000/svg">
<path d="M25.6666 32.0001L25.6666 2.0001C25.6656 1.69637 25.5819 1.39864 25.4243 1.13898C25.2667 0.879311 25.0413 0.667535 24.7723 0.526445C24.5034 0.385356 24.201 0.320295 23.8978 0.338266C23.5946 0.356238 23.302 0.456561 23.0516 0.628438L1.38493 15.6284C0.486598 16.2501 0.486598 17.7468 1.38493 18.3701L23.0516 33.3701C23.3015 33.5437 23.5942 33.6455 23.8979 33.6645C24.2016 33.6834 24.5047 33.6188 24.7743 33.4776C25.0438 33.3364 25.2695 33.124 25.4268 32.8635C25.5842 32.603 25.6671 32.3044 25.6666 32.0001Z" fill="#333333"/>
</svg>
