<svg width="259" height="59" viewBox="0 0 259 59" fill="none" xmlns="http://www.w3.org/2000/svg">
<path d="M10.328 49.416C3.672 49.416 0.344 45.4907 0.344 37.64C0.344 31.1547 2.072 25.928 5.528 21.96C8.42933 18.5467 11.7573 16.84 15.512 16.84C17.6027 16.84 19.2453 17.3947 20.44 18.504C21.6773 19.6133 22.296 21.2133 22.296 23.304C22.296 26.632 21.016 30.0027 18.456 33.416C15.8107 36.9573 13.1227 38.728 10.392 38.728C8.81333 38.728 7.64 38.2587 6.872 37.32C6.14667 36.3813 5.784 35.2507 5.784 33.928C5.784 33.0747 5.95467 32.136 6.296 31.112C6.76533 29.8747 7.256 29.256 7.768 29.256C8.152 29.256 8.344 29.448 8.344 29.832C8.344 30.0453 8.152 30.6 7.768 31.496C7.46933 32.136 7.32 32.7973 7.32 33.48C7.32 34.376 7.59733 35.1013 8.152 35.656C8.74933 36.168 9.51733 36.424 10.456 36.424C12.9733 36.424 15.3413 34.824 17.56 31.624C19.6507 28.6373 20.696 25.672 20.696 22.728C20.696 21.192 20.312 20.0187 19.544 19.208C18.8187 18.3547 17.816 17.928 16.536 17.928C13.5067 17.928 10.4773 20.0187 7.448 24.2C4.33333 28.68 2.86133 33.608 3.032 38.984C3.11733 41.3733 3.75733 43.4 4.952 45.064C6.18933 46.728 7.832 47.56 9.88 47.56C15.64 47.56 23 39.9013 31.96 24.584C27.2667 23.176 24.92 20.4027 24.92 16.264C24.92 13.4907 25.6667 10.9947 27.16 8.776C28.6533 6.51466 30.7013 4.616 33.304 3.08C36.8453 1.032 40.3013 0.00799942 43.672 0.00799942C45.5067 0.00799942 47.2773 0.242666 48.984 0.711998C50.7333 1.13866 52.184 1.84266 53.336 2.824C54.488 3.76266 55.064 5 55.064 6.536C55.064 7.048 54.936 7.53866 54.68 8.008C54.4667 8.47733 54.232 8.712 53.976 8.712C54.0187 8.712 53.8267 8.584 53.4 8.328C52.9733 8.02933 52.504 7.88 51.992 7.88C48.3653 7.88 43.3947 13.2773 37.08 24.072C37.2507 24.1147 37.4213 24.136 37.592 24.136C37.7627 24.136 37.9333 24.136 38.104 24.136C39.1707 24.136 40.1947 23.944 41.176 23.56C42.2 23.176 43.032 22.6427 43.672 21.96C44.3547 21.2773 44.696 20.5093 44.696 19.656C44.696 19.3147 44.6107 18.9733 44.44 18.632C44.312 18.248 44.248 18.0133 44.248 17.928C44.248 17.5867 44.4187 17.416 44.76 17.416C44.9307 17.416 45.1013 17.48 45.272 17.608C46.2533 18.3333 46.744 19.2293 46.744 20.296C46.744 21.3627 46.3387 22.3013 45.528 23.112C44.7173 23.9227 43.672 24.5627 42.392 25.032C41.1547 25.4587 39.896 25.672 38.616 25.672C37.8907 25.672 37.1653 25.608 36.44 25.48C33.496 30.8987 29.912 35.8907 25.688 40.456C20.056 46.4293 14.936 49.416 10.328 49.416ZM33.048 22.984C35.3947 19.144 38.2533 15.496 41.624 12.04C45.6773 7.85866 48.9413 5.768 51.416 5.768C52.056 5.768 52.6107 5.91733 53.08 6.216C53.0373 5.40533 52.6533 4.68 51.928 4.04C51.2027 3.35733 50.328 2.824 49.304 2.44C48.3227 2.056 47.384 1.84267 46.488 1.8C43.672 1.672 40.6853 2.312 37.528 3.72C34.84 4.91466 32.6213 6.728 30.872 9.16C29.1653 11.5493 28.312 14.3227 28.312 17.48C28.312 20.552 29.8907 22.3867 33.048 22.984ZM52.195 45.128C51.043 45.128 50.2323 44.808 49.763 44.168C49.2937 43.4853 49.059 42.6533 49.059 41.672C49.059 39.1973 49.9123 36.552 51.619 33.736L55.715 27.08C52.8137 29.2133 49.9337 31.88 47.075 35.08C46.307 35.9333 45.4323 36.936 44.451 38.088C43.5123 39.24 42.467 40.5627 41.315 42.056C39.779 44.0613 38.8617 45.064 38.563 45.064C37.9657 45.064 37.475 44.808 37.091 44.296C36.707 43.7413 36.515 43.2507 36.515 42.824C36.515 42.4827 36.6217 41.864 36.835 40.968C37.0483 40.0293 37.3043 39.2187 37.603 38.536C37.9017 37.8107 38.2003 37.1067 38.499 36.424C38.8403 35.6987 39.1603 34.9947 39.459 34.312L35.619 38.344C35.5337 38.4293 35.2777 38.6853 34.851 39.112C34.4243 39.5387 34.083 39.752 33.827 39.752C33.6137 39.752 33.507 39.6027 33.507 39.304C33.507 39.2187 33.5497 39.112 33.635 38.984C33.6777 38.8133 33.8057 38.6213 34.019 38.408C34.659 37.768 35.3203 37.0853 36.003 36.36C36.6857 35.6347 37.3897 34.8027 38.115 33.864C38.499 33.3947 39.075 32.6907 39.843 31.752C40.611 30.7707 41.443 29.7253 42.339 28.616C43.2777 27.5067 44.1523 26.4827 44.963 25.544C45.1763 25.2453 45.411 25.0533 45.667 24.968C45.923 24.84 46.0937 24.776 46.179 24.776C47.331 24.776 47.907 25.224 47.907 26.12C47.907 26.376 47.843 26.632 47.715 26.888C43.875 32.1787 41.571 36.2107 40.803 38.984C45.7523 34.0347 49.7203 30.3227 52.707 27.848C55.7363 25.3307 57.891 24.072 59.171 24.072C59.8537 24.072 60.3657 24.1787 60.707 24.392C61.091 24.6053 61.283 25.0107 61.283 25.608C61.283 25.8213 61.2617 25.992 61.219 26.12C61.091 26.4187 60.2163 27.6133 58.595 29.704C57.6137 30.8987 56.739 31.9867 55.971 32.968C55.2457 33.9493 54.6483 34.8027 54.179 35.528C53.411 36.7227 52.835 37.8533 52.451 38.92C52.067 39.944 51.875 40.8187 51.875 41.544C51.875 41.8427 51.9177 42.2053 52.003 42.632C52.0883 43.0587 52.3443 43.272 52.771 43.272C53.7523 43.272 55.2883 42.4187 57.379 40.712C58.3603 39.8587 59.2777 39.0053 60.131 38.152C60.9843 37.256 61.795 36.3813 62.563 35.528C62.7337 35.3573 63.011 35.0373 63.395 34.568C63.779 34.056 64.0137 33.8 64.099 33.8C64.2697 33.8 64.355 33.9707 64.355 34.312C64.355 34.4827 64.2483 34.7813 64.035 35.208C63.8643 35.592 63.6723 35.8907 63.459 36.104C62.9897 36.6587 62.2857 37.4267 61.347 38.408C60.451 39.3893 59.427 40.392 58.275 41.416C57.1657 42.44 56.0777 43.3147 55.011 44.04C53.9443 44.7653 53.0057 45.128 52.195 45.128ZM78.0075 45.128C76.8555 45.128 76.0448 44.808 75.5755 44.168C75.1062 43.4853 74.8715 42.6533 74.8715 41.672C74.8715 39.1973 75.7248 36.552 77.4315 33.736L81.5275 27.08C78.6262 29.2133 75.7462 31.88 72.8875 35.08C72.1195 35.9333 71.2448 36.936 70.2635 38.088C69.3248 39.24 68.2795 40.5627 67.1275 42.056C65.5915 44.0613 64.6742 45.064 64.3755 45.064C63.7782 45.064 63.2875 44.808 62.9035 44.296C62.5195 43.7413 62.3275 43.2507 62.3275 42.824C62.3275 42.4827 62.4342 41.864 62.6475 40.968C62.8608 40.0293 63.1168 39.2187 63.4155 38.536C63.7142 37.8107 64.0128 37.1067 64.3115 36.424C64.6528 35.6987 64.9728 34.9947 65.2715 34.312L61.4315 38.344C61.3462 38.4293 61.0902 38.6853 60.6635 39.112C60.2368 39.5387 59.8955 39.752 59.6395 39.752C59.4262 39.752 59.3195 39.6027 59.3195 39.304C59.3195 39.2187 59.3622 39.112 59.4475 38.984C59.4902 38.8133 59.6182 38.6213 59.8315 38.408C60.4715 37.768 61.1328 37.0853 61.8155 36.36C62.4982 35.6347 63.2022 34.8027 63.9275 33.864C64.3115 33.3947 64.8875 32.6907 65.6555 31.752C66.4235 30.7707 67.2555 29.7253 68.1515 28.616C69.0902 27.5067 69.9648 26.4827 70.7755 25.544C70.9888 25.2453 71.2235 25.0533 71.4795 24.968C71.7355 24.84 71.9062 24.776 71.9915 24.776C73.1435 24.776 73.7195 25.224 73.7195 26.12C73.7195 26.376 73.6555 26.632 73.5275 26.888C69.6875 32.1787 67.3835 36.2107 66.6155 38.984C71.5648 34.0347 75.5328 30.3227 78.5195 27.848C81.5488 25.3307 83.7035 24.072 84.9835 24.072C85.6662 24.072 86.1782 24.1787 86.5195 24.392C86.9035 24.6053 87.0955 25.0107 87.0955 25.608C87.0955 25.8213 87.0742 25.992 87.0315 26.12C86.9035 26.4187 86.0288 27.6133 84.4075 29.704C83.4262 30.8987 82.5515 31.9867 81.7835 32.968C81.0582 33.9493 80.4608 34.8027 79.9915 35.528C79.2235 36.7227 78.6475 37.8533 78.2635 38.92C77.8795 39.944 77.6875 40.8187 77.6875 41.544C77.6875 41.8427 77.7302 42.2053 77.8155 42.632C77.9008 43.0587 78.1568 43.272 78.5835 43.272C79.5648 43.272 81.1008 42.4187 83.1915 40.712C84.1728 39.8587 85.0902 39.0053 85.9435 38.152C86.7968 37.256 87.6075 36.3813 88.3755 35.528C88.5462 35.3573 88.8235 35.0373 89.2075 34.568C89.5915 34.056 89.8262 33.8 89.9115 33.8C90.0822 33.8 90.1675 33.9707 90.1675 34.312C90.1675 34.4827 90.0608 34.7813 89.8475 35.208C89.6768 35.592 89.4848 35.8907 89.2715 36.104C88.8022 36.6587 88.0982 37.4267 87.1595 38.408C86.2635 39.3893 85.2395 40.392 84.0875 41.416C82.9782 42.44 81.8902 43.3147 80.8235 44.04C79.7568 44.7653 78.8182 45.128 78.0075 45.128ZM90.252 45.128C89.1853 45.128 88.3533 44.6373 87.756 43.656C87.1587 42.632 86.86 41.6507 86.86 40.712C86.86 38.152 88.716 34.568 92.428 29.96C96.1827 25.3093 99.212 22.984 101.516 22.984C103.692 22.984 104.78 24.136 104.78 26.44C104.78 26.7813 104.737 27.144 104.652 27.528C104.609 27.912 104.545 28.3173 104.46 28.744C104.545 28.872 104.759 28.936 105.1 28.936C106.252 28.936 107.617 28.5307 109.196 27.72C109.153 28.4453 107.468 29.4907 104.14 30.856C104.609 32.264 103.201 34.952 99.916 38.92C96.5453 43.0587 93.6653 45.128 91.276 45.128H90.252ZM91.404 43.208C93.2387 43.208 95.5853 41.5227 98.444 38.152C101.217 34.8667 102.604 32.4987 102.604 31.048C101.921 30.664 101.068 29.6827 100.044 28.104C98.5933 28.104 96.5027 29.8533 93.772 33.352C91.084 36.7653 89.7827 39.3893 89.868 41.224C89.9107 42.5467 90.4227 43.208 91.404 43.208ZM107.612 45.192C107.356 45.192 106.993 45.0853 106.524 44.872C106.055 44.616 105.628 44.3387 105.244 44.04C104.86 43.6987 104.647 43.4 104.604 43.144C104.561 42.8027 104.796 41.8427 105.308 40.264C105.777 38.6427 106.545 36.4453 107.612 33.672C108.679 30.856 109.575 28.68 110.3 27.144C111.025 25.608 111.559 24.6907 111.9 24.392C112.071 24.2213 112.305 24.136 112.604 24.136C113.073 24.136 113.521 24.3493 113.948 24.776C114.375 25.16 114.609 25.6293 114.652 26.184C114.652 26.2267 113.585 28.744 111.452 33.736C109.361 38.5573 108.38 41.4373 108.508 42.376C110.385 41.7787 113.521 39.6667 117.916 36.04C120.561 33.8213 122.46 31.816 123.612 30.024C124.807 28.1893 125.404 26.5467 125.404 25.096C125.404 24.2427 125.191 23.4747 124.764 22.792C124.38 22.0667 123.655 21.4693 122.588 21C122.289 20.872 122.14 20.68 122.14 20.424C122.14 20.04 122.375 19.848 122.844 19.848C124.081 19.848 125.148 20.2533 126.044 21.064C126.983 21.8747 127.452 23.0907 127.452 24.712C127.452 26.4187 126.727 28.36 125.276 30.536C123.825 32.6693 121.756 34.952 119.068 37.384C116.721 39.4747 114.588 41.1813 112.668 42.504C110.791 43.8267 109.105 44.7227 107.612 45.192ZM129.038 45.32C128.014 45.32 126.99 44.9573 125.966 44.232C124.942 43.5067 124.366 42.6533 124.238 41.672C123.811 38.3867 125.881 34.4827 130.446 29.96C134.969 25.4373 139.043 23.176 142.67 23.176C143.651 23.176 144.419 23.4107 144.974 23.88C145.273 24.1787 145.486 24.584 145.614 25.096C145.785 25.608 145.913 25.864 145.998 25.864C146.169 25.864 146.318 25.8427 146.446 25.8C146.574 25.7147 146.723 25.672 146.894 25.672C147.406 25.672 147.854 25.864 148.238 26.248C148.622 26.632 148.835 26.9733 148.878 27.272C148.921 27.3573 147.555 29.4693 144.782 33.608C142.009 37.6613 140.75 40.4133 141.006 41.864C141.219 42.8453 141.689 43.336 142.414 43.336C144.633 43.336 148.686 39.6667 154.574 32.328C154.702 32.1573 154.83 32.072 154.958 32.072C155.171 32.072 155.278 32.2213 155.278 32.52C155.278 32.8613 155.086 33.288 154.702 33.8C149.283 41.096 145.123 44.744 142.222 44.744C141.838 44.744 141.475 44.68 141.134 44.552C139.257 43.8267 138.318 42.4187 138.318 40.328C138.318 39.6027 138.403 38.8773 138.574 38.152L134.606 41.992C133.411 43.1867 132.323 44.04 131.342 44.552C130.403 45.064 129.635 45.32 129.038 45.32ZM128.462 43.912C130.937 43.912 134.307 41.2027 138.574 35.784L145.358 26.44C145.017 25.8427 144.462 25.544 143.694 25.544C141.091 25.544 137.571 27.6347 133.134 31.816C128.526 36.0827 126.457 39.6027 126.926 42.376C127.139 43.4 127.651 43.912 128.462 43.912ZM168.981 51.08C167.232 51.08 165.056 50.0347 162.453 47.944C160.618 47.6453 159.04 47.24 157.717 46.728C156.437 46.2587 155.37 45.6827 154.517 45C153.322 43.976 152.277 42.6107 151.381 40.904C150.485 39.1973 150.037 37.5547 150.037 35.976C150.037 34.7813 150.314 33.7147 150.869 32.776C152.149 30.5147 153.77 29.384 155.733 29.384C157.226 29.384 158.101 30.6427 158.357 33.16C158.656 35.5067 158.89 37.384 159.061 38.792C159.274 40.1573 159.445 41.0533 159.573 41.48C160.213 43.5707 161.301 45.3413 162.837 46.792C164.629 47.176 166.57 47.368 168.661 47.368C173.269 47.368 177.685 46.4933 181.909 44.744C183.701 43.976 185.45 42.9733 187.157 41.736C188.864 40.4987 190.272 39.1333 191.381 37.64C192.49 36.1467 193.045 34.696 193.045 33.288C193.045 31.2827 191.274 29.7253 187.733 28.616L176.469 26.056C174.165 25.544 172.309 24.648 170.901 23.368C169.536 22.0453 168.853 20.552 168.853 18.888C168.853 16.328 170.453 13.768 173.653 11.208C175.274 9.88533 177.173 8.776 179.349 7.88C181.525 6.94133 183.808 6.23733 186.197 5.768C188.629 5.256 190.954 5 193.173 5C196.33 5 199.018 5.49067 201.237 6.472C203.498 7.45333 204.906 8.88266 205.461 10.76C205.589 11.1867 205.653 11.656 205.653 12.168C205.653 14.7707 204.352 16.584 201.749 17.608C200.17 18.248 198.826 18.568 197.717 18.568C197.034 18.568 196.501 18.44 196.117 18.184C196.032 18.0987 195.989 17.992 195.989 17.864C195.989 17.5653 196.586 17.3947 197.781 17.352C198.506 17.3093 199.104 17.2453 199.573 17.16C200.042 17.0747 200.384 16.9893 200.597 16.904C202.218 16.0507 203.029 14.792 203.029 13.128C203.029 12.2747 202.794 11.3787 202.325 10.44C201.002 8.008 197.696 6.792 192.405 6.792C190.485 6.792 188.501 7.00533 186.453 7.432C184.405 7.816 182.464 8.41333 180.629 9.224C178.794 9.992 177.237 10.9733 175.957 12.168C173.738 14.216 172.629 16.0507 172.629 17.672C172.629 18.9093 173.226 20.0187 174.421 21C175.658 21.9387 177.514 22.6427 179.989 23.112L187.541 24.52C190.442 25.0747 192.789 25.9067 194.581 27.016C196.373 28.0827 197.269 29.7253 197.269 31.944C197.269 33.9067 196.778 35.7413 195.797 37.448C194.816 39.1547 193.493 40.6907 191.829 42.056C190.208 43.3787 188.352 44.488 186.261 45.384C181.525 47.4747 175.936 48.52 169.493 48.52C168.682 48.52 167.872 48.4987 167.061 48.456C166.25 48.4133 165.461 48.3493 164.693 48.264C165.29 48.6053 166.037 48.9467 166.933 49.288C167.872 49.6293 168.938 49.9493 170.133 50.248C170.261 50.2907 170.325 50.376 170.325 50.504C170.325 50.888 169.877 51.08 168.981 51.08ZM160.533 46.152C159.381 44.872 158.485 43.5493 157.845 42.184C156.906 40.0507 156.202 37.4267 155.733 34.312C155.392 32.0507 155.029 30.92 154.645 30.92C154.304 30.92 153.834 31.176 153.237 31.688C152.682 32.2 152.405 33.288 152.405 34.952C152.405 38.1947 153.557 41.0107 155.861 43.4C157.013 44.5947 158.57 45.512 160.533 46.152ZM201.752 45.128C200.685 45.128 199.853 44.6373 199.256 43.656C198.659 42.632 198.36 41.6507 198.36 40.712C198.36 38.152 200.216 34.568 203.928 29.96C207.683 25.3093 210.712 22.984 213.016 22.984C215.192 22.984 216.28 24.136 216.28 26.44C216.28 26.7813 216.237 27.144 216.152 27.528C216.109 27.912 216.045 28.3173 215.96 28.744C216.045 28.872 216.259 28.936 216.6 28.936C217.752 28.936 219.117 28.5307 220.696 27.72C220.653 28.4453 218.968 29.4907 215.64 30.856C216.109 32.264 214.701 34.952 211.416 38.92C208.045 43.0587 205.165 45.128 202.776 45.128H201.752ZM202.904 43.208C204.739 43.208 207.085 41.5227 209.944 38.152C212.717 34.8667 214.104 32.4987 214.104 31.048C213.421 30.664 212.568 29.6827 211.544 28.104C210.093 28.104 208.003 29.8533 205.272 33.352C202.584 36.7653 201.283 39.3893 201.368 41.224C201.411 42.5467 201.923 43.208 202.904 43.208ZM206.12 58.12C204.84 58.12 203.752 57.5867 202.856 56.52C201.96 55.4533 201.491 54.3013 201.448 53.064C201.576 52.552 201.768 52.296 202.024 52.296C202.28 52.296 202.429 52.616 202.472 53.256C202.515 53.9387 202.856 54.6 203.496 55.24C204.136 55.88 204.776 56.2 205.416 56.2C209.043 56.2 212.349 53.96 215.336 49.48C216.147 48.2853 217.149 46.5573 218.344 44.296C219.539 41.992 220.861 39.112 222.312 35.656L225.768 27.336C221.501 27.2933 219.368 26.7813 219.368 25.8C219.368 25.3307 219.581 24.968 220.008 24.712C220.435 24.4133 220.776 24.264 221.032 24.264C221.075 24.264 221.608 24.2853 222.632 24.328C223.656 24.328 225.128 24.3493 227.048 24.392C231.229 15.0907 235.069 10.44 238.568 10.44C239.933 10.44 241.277 11.08 242.6 12.36C242.941 12.7013 243.112 13.1493 243.112 13.704C243.112 15.0267 242.728 15.688 241.96 15.688C241.747 15.688 241.533 15.5173 241.32 15.176C241.149 14.8773 240.872 14.6427 240.488 14.472C240.104 14.2587 239.741 14.152 239.4 14.152C238.12 14.152 236.989 14.6427 236.008 15.624C235.069 16.5627 234.173 17.8 233.32 19.336C232.509 20.872 231.635 22.5573 230.696 24.392H231.464C236.115 24.392 239.208 24.328 240.744 24.2C240.915 24.2427 241 24.328 241 24.456C241 24.7973 239.485 25.2667 236.456 25.864C235.261 26.0347 234.088 26.2267 232.936 26.44C231.784 26.6533 230.611 26.8667 229.416 27.08C228.861 28.2747 228.179 29.704 227.368 31.368C226.557 32.9893 225.64 34.8027 224.616 36.808C222.611 40.5627 220.968 43.5493 219.688 45.768C218.408 47.9867 217.512 49.4587 217 50.184C213.288 55.4747 209.661 58.12 206.12 58.12ZM236.468 45.384C235.103 45.384 234.015 45.064 233.204 44.424C232.436 43.7413 232.052 42.5467 232.052 40.84C232.052 39.8587 232.351 38.6213 232.948 37.128C233.545 35.592 234.292 33.9493 235.188 32.2C236.084 30.4507 236.98 28.7227 237.876 27.016C237.321 27.144 236.831 27.208 236.404 27.208C235.124 27.208 234.484 26.7173 234.484 25.736C234.484 25.2667 234.655 24.904 234.996 24.648C235.38 24.392 235.721 24.2427 236.02 24.2C236.02 24.2 236.063 24.2 236.148 24.2C236.276 24.2 236.425 24.1787 236.596 24.136H240.308C241.076 23.1547 241.865 22.1093 242.676 21C243.828 19.5493 244.745 18.696 245.428 18.44H245.62C245.919 18.44 246.345 18.5893 246.9 18.888C247.583 19.272 247.924 19.656 247.924 20.04C247.924 20.5947 246.9 22.024 244.852 24.328C245.236 24.3707 245.791 24.392 246.516 24.392C247.241 24.392 248.137 24.392 249.204 24.392C249.716 24.392 250.441 24.392 251.38 24.392C252.361 24.392 253.364 24.392 254.388 24.392C255.455 24.3493 256.372 24.328 257.14 24.328C257.908 24.2853 258.335 24.264 258.42 24.264C258.548 24.3067 258.612 24.3707 258.612 24.456C258.612 24.84 256.095 25.352 251.06 25.992C248.201 26.376 246.004 26.6747 244.468 26.888C242.975 27.1013 242.164 27.2293 242.036 27.272C241.439 27.784 240.713 28.6587 239.86 29.896C239.007 31.1333 238.153 32.52 237.3 34.056C236.447 35.592 235.721 37.064 235.124 38.472C234.569 39.8373 234.292 40.904 234.292 41.672C234.292 42.3547 234.548 42.9307 235.06 43.4C235.572 43.8267 236.404 44.04 237.556 44.04C238.324 44.04 239.241 43.8693 240.308 43.528C241.375 43.1867 242.377 42.8027 243.316 42.376C244.297 41.9067 245.001 41.544 245.428 41.288C246.537 40.6053 247.753 39.7093 249.076 38.6C250.441 37.448 251.785 36.1467 253.108 34.696C253.705 34.0987 254.111 33.8 254.324 33.8C254.452 33.8 254.516 33.8853 254.516 34.056C254.516 34.3973 254.196 34.952 253.556 35.72C252.532 36.9573 251.38 38.152 250.1 39.304C248.863 40.4133 247.476 41.4373 245.94 42.376C244.191 43.4427 242.505 44.2107 240.884 44.68C239.305 45.1493 237.833 45.384 236.468 45.384Z" fill="black"/>
</svg>
