<svg width="32" height="32" viewBox="0 0 32 32" fill="none" xmlns="http://www.w3.org/2000/svg">
<path d="M16 2C14.9391 2 13.9217 2.42143 13.1716 3.17157C12.4214 3.92172 12 4.93913 12 6V14C12 15.0609 12.4214 16.0783 13.1716 16.8284C13.9217 17.5786 14.9391 18 16 18C17.0609 18 18.0783 17.5786 18.8284 16.8284C19.5786 16.0783 20 15.0609 20 14V6C20 4.93913 19.5786 3.92172 18.8284 3.17157C18.0783 2.42143 17.0609 2 16 2Z" fill="#1E1E1E"/>
<path d="M9 14C9 13.6022 8.84196 13.2206 8.56066 12.9393C8.27936 12.658 7.89782 12.5 7.5 12.5C7.10218 12.5 6.72064 12.658 6.43934 12.9393C6.15804 13.2206 6 13.6022 6 14C5.99973 16.3924 6.85718 18.7057 8.41675 20.5199C9.97632 22.3341 12.1346 23.5291 14.5 23.888V27H11.5C11.1022 27 10.7206 27.158 10.4393 27.4393C10.158 27.7206 10 28.1022 10 28.5C10 28.8978 10.158 29.2794 10.4393 29.5607C10.7206 29.842 11.1022 30 11.5 30H20.5C20.8978 30 21.2794 29.842 21.5607 29.5607C21.842 29.2794 22 28.8978 22 28.5C22 28.1022 21.842 27.7206 21.5607 27.4393C21.2794 27.158 20.8978 27 20.5 27H17.5V23.888C19.8654 23.5291 22.0237 22.3341 23.5832 20.5199C25.1428 18.7057 26.0003 16.3924 26 14C26 13.6022 25.842 13.2206 25.5607 12.9393C25.2794 12.658 24.8978 12.5 24.5 12.5C24.1022 12.5 23.7206 12.658 23.4393 12.9393C23.158 13.2206 23 13.6022 23 14C23 15.8565 22.2625 17.637 20.9497 18.9497C19.637 20.2625 17.8565 21 16 21C14.1435 21 12.363 20.2625 11.0503 18.9497C9.7375 17.637 9 15.8565 9 14Z" fill="#1E1E1E"/>
</svg>
