<svg width="24" height="32" viewBox="0 0 24 32" fill="none" xmlns="http://www.w3.org/2000/svg">
<g clip-path="url(#clip0_349_170)">
<path d="M24.0937 0.225308C23.9321 0.10922 23.7445 0.0346384 23.5473 0.00813229C23.3502 -0.0183739 23.1495 0.00400849 22.963 0.0733082L22.971 0.0706415L8.20169 5.32131C7.96227 5.40606 7.75505 5.56304 7.60865 5.77058C7.46225 5.97813 7.38388 6.22599 7.38436 6.47998V23.6C6.62948 23.1878 5.78312 22.9718 4.92302 22.972C3.67475 22.9216 2.45578 23.3663 1.53382 24.2094C0.611869 25.0524 0.0602432 26.2255 -0.000976562 27.4733V27.484C0.0578442 28.7353 0.609643 29.9125 1.53382 30.7582C2.45799 31.604 3.67938 32.0494 4.93102 31.9973H4.92169C6.16996 32.0477 7.3876 31.6029 8.30956 30.7599C9.23151 29.9169 9.78314 28.7438 9.84436 27.496V10.308L22.151 6.01064V17.9746C21.3958 17.5634 20.5496 17.348 19.6897 17.348H19.6884C18.44 17.2969 17.2221 17.7414 16.3002 18.5847C15.3783 19.4279 14.8272 20.6014 14.767 21.8493V21.86C14.8255 23.1115 15.3772 24.2888 16.3014 25.1346C17.2257 25.9804 18.4473 26.4258 19.699 26.3733H19.6897L19.8297 26.376C20.906 26.3764 21.9516 26.0172 22.8003 25.3552C23.649 24.6933 24.252 23.7667 24.5137 22.7226L24.5204 22.6893C24.5801 22.5456 24.6114 22.3916 24.6124 22.236V1.23064C24.6127 1.03431 24.5658 0.840776 24.4758 0.6663C24.3858 0.491824 24.2552 0.341505 24.095 0.227975L24.091 0.225308H24.0937Z" fill="#1E1E1E"/>
</g>
<defs>
<clipPath id="clip0_349_170">
<rect width="24" height="32" fill="white"/>
</clipPath>
</defs>
</svg>
