<svg width="32" height="32" viewBox="0 0 32 32" fill="none" xmlns="http://www.w3.org/2000/svg">
<path d="M2.66699 7.02667L4.37366 5.33333L26.667 27.6267L24.9737 29.3333L12.0003 16.36V23.3333C12.0003 24.571 11.5087 25.758 10.6335 26.6332C9.75832 27.5083 8.57134 28 7.33366 28C6.09598 28 4.909 27.5083 4.03383 26.6332C3.15866 25.758 2.66699 24.571 2.66699 23.3333C2.66699 22.0957 3.15866 20.9087 4.03383 20.0335C4.909 19.1583 6.09598 18.6667 7.33366 18.6667C8.05366 18.6667 8.73366 18.8267 9.33366 19.12V13.6933L2.66699 7.02667ZM28.0003 4V20.6667C28.0003 22 27.427 23.2267 26.507 24.08L19.9203 17.4933C20.7737 16.5733 22.0003 16 23.3337 16C24.0537 16 24.7337 16.16 25.3337 16.4533V8.62667L13.5603 11.1333L10.2137 7.78667L28.0003 4Z" fill="#1E1E1E"/>
</svg>
