<svg width="50" height="50" viewBox="0 0 50 50" fill="none" xmlns="http://www.w3.org/2000/svg">
<path d="M29.1667 31.2501C29.757 31.2501 30.2695 31.0334 30.7042 30.6001C31.1389 30.1667 31.3556 29.6542 31.3542 29.0626C31.3528 28.4709 31.1361 27.9591 30.7042 27.5272C30.2722 27.0952 29.7597 26.8779 29.1667 26.8751C28.5736 26.8723 28.0618 27.0897 27.6313 27.5272C27.2007 27.9647 26.9834 28.4765 26.9792 29.0626C26.975 29.6487 27.1924 30.1612 27.6313 30.6001C28.0702 31.039 28.582 31.2556 29.1667 31.2501ZM29.1667 24.5834C29.5486 24.5834 29.9049 24.4445 30.2354 24.1667C30.566 23.889 30.7653 23.5244 30.8334 23.073C30.9028 22.6563 31.05 22.2744 31.275 21.9272C31.5 21.5799 31.9084 21.1112 32.5 20.5209C33.5417 19.4792 34.2361 18.6369 34.5834 17.9938C34.9306 17.3508 35.1042 16.5959 35.1042 15.7292C35.1042 14.1667 34.557 12.8904 33.4625 11.9001C32.3681 10.9098 30.9361 10.4154 29.1667 10.4167C28.0209 10.4167 26.9792 10.6772 26.0417 11.198C25.1042 11.7188 24.3577 12.4654 23.8021 13.4376C23.5938 13.7848 23.5764 14.1494 23.75 14.5313C23.9236 14.9133 24.2188 15.1911 24.6354 15.3647C25.0174 15.5383 25.391 15.5556 25.7563 15.4167C26.1215 15.2779 26.425 15.0348 26.6667 14.6876C26.9792 14.2362 27.3438 13.898 27.7604 13.673C28.1771 13.448 28.6459 13.3348 29.1667 13.3334C30 13.3334 30.6771 13.5681 31.1979 14.0376C31.7188 14.507 31.9792 15.1404 31.9792 15.9376C31.9792 16.4237 31.8403 16.8841 31.5625 17.3188C31.2847 17.7536 30.7986 18.3001 30.1042 18.9584C29.0972 19.8265 28.4549 20.4952 28.1771 20.9647C27.8993 21.4341 27.7257 22.1195 27.6563 23.0209C27.6215 23.4376 27.7521 23.8022 28.0479 24.1147C28.3438 24.4272 28.7167 24.5834 29.1667 24.5834ZM16.6667 37.5001C15.5209 37.5001 14.5403 37.0924 13.725 36.2772C12.9097 35.4619 12.5014 34.4806 12.5 33.3334V8.33341C12.5 7.18758 12.9084 6.20703 13.725 5.39175C14.5417 4.57647 15.5222 4.16814 16.6667 4.16675H41.6667C42.8125 4.16675 43.7938 4.57508 44.6104 5.39175C45.4271 6.20841 45.8347 7.18897 45.8334 8.33341V33.3334C45.8334 34.4792 45.4257 35.4605 44.6104 36.2772C43.7952 37.0938 42.8139 37.5015 41.6667 37.5001H16.6667ZM16.6667 33.3334H41.6667V8.33341H16.6667V33.3334ZM8.33335 45.8334C7.18752 45.8334 6.20696 45.4258 5.39169 44.6105C4.57641 43.7952 4.16808 42.814 4.16669 41.6667V14.5834C4.16669 13.9931 4.36669 13.4987 4.76669 13.1001C5.16669 12.7015 5.66113 12.5015 6.25002 12.5001C6.83891 12.4987 7.33405 12.6987 7.73544 13.1001C8.13683 13.5015 8.33613 13.9959 8.33335 14.5834V41.6667H35.4167C36.007 41.6667 36.5021 41.8667 36.9021 42.2667C37.3021 42.6667 37.5014 43.1612 37.5 43.7501C37.4986 44.339 37.2986 44.8341 36.9 45.2355C36.5014 45.6369 36.007 45.8362 35.4167 45.8334H8.33335Z" fill="#333333"/>
</svg>
