<svg width="50" height="50" viewBox="0 0 50 50" fill="none" xmlns="http://www.w3.org/2000/svg">
<path d="M10.4167 16.6667V39.5833H39.5833V16.6667H33.3333V33.3333L25 29.1667L16.6667 33.3333V16.6667H10.4167ZM10.4167 43.75C9.27083 43.75 8.29028 43.3424 7.475 42.5271C6.65972 41.7118 6.25139 40.7306 6.25 39.5833V13.5938C6.25 13.1076 6.32847 12.6389 6.48542 12.1875C6.64236 11.7361 6.87639 11.3195 7.1875 10.9375L9.79167 7.76043C10.1736 7.27432 10.6507 6.90071 11.2229 6.63959C11.7951 6.37848 12.3944 6.24862 13.0208 6.25001H36.9792C37.6042 6.25001 38.2035 6.38057 38.7771 6.64168C39.3507 6.90279 39.8278 7.27571 40.2083 7.76043L42.8125 10.9375C43.125 11.3195 43.3597 11.7361 43.5167 12.1875C43.6736 12.6389 43.7514 13.1076 43.75 13.5938V39.5833C43.75 40.7292 43.3424 41.7104 42.5271 42.5271C41.7118 43.3438 40.7306 43.7514 39.5833 43.75H10.4167ZM11.25 12.5H38.75L36.9792 10.4167H13.0208L11.25 12.5ZM20.8333 16.6667V26.5625L25 24.4792L29.1667 26.5625V16.6667H20.8333Z" fill="#333333"/>
</svg>
