<svg width="20" height="27" viewBox="0 0 20 27" fill="none" xmlns="http://www.w3.org/2000/svg">
<path d="M1.90735e-06 1.33648L1.90735e-06 25.3794C0.000764847 25.6228 0.0679016 25.8614 0.194185 26.0695C0.320469 26.2776 0.501116 26.4473 0.716682 26.5604C0.932251 26.6735 1.17458 26.7256 1.41757 26.7112C1.66057 26.6968 1.89504 26.6164 2.09574 26.4786L19.46 14.4572C20.18 13.959 20.18 12.7595 19.46 12.26L2.09574 0.238524C1.89546 0.0993753 1.66087 0.0177755 1.41747 0.00258985C1.17407 -0.0125958 0.931158 0.0392134 0.715134 0.152389C0.499109 0.265564 0.318232 0.435776 0.192152 0.644533C0.0660744 0.85329 -0.00038147 1.09261 1.90735e-06 1.33648Z" fill="url(#paint0_linear_35_296)"/>
<defs>
<linearGradient id="paint0_linear_35_296" x1="0" y1="13.3568" x2="20" y2="13.3568" gradientUnits="userSpaceOnUse">
<stop stop-color="#333333"/>
<stop offset="1" stop-color="#999999"/>
</linearGradient>
</defs>
</svg>
