<svg width="50" height="50" viewBox="0 0 50 50" fill="none" xmlns="http://www.w3.org/2000/svg">
<g clip-path="url(#clip0_24_79)">
<path fill-rule="evenodd" clip-rule="evenodd" d="M28.8929 0.300053C28.5453 0.245648 28.1905 0.260228 27.8486 0.34296C27.5067 0.425692 27.1844 0.574956 26.9002 0.78223C26.616 0.989504 26.3754 1.25073 26.1921 1.55099C26.0089 1.85125 25.8865 2.18466 25.8321 2.5322C25.7777 2.87973 25.7923 3.23458 25.875 3.57648C25.9578 3.91838 26.107 4.24063 26.3143 4.52485C26.5216 4.80906 26.7828 5.04966 27.0831 5.23292C27.3833 5.41618 27.7168 5.53851 28.0643 5.59291C32.9366 6.37749 37.3354 8.96672 40.3861 12.8459C43.4368 16.7251 44.9162 21.6102 44.5301 26.5302C44.1441 31.4502 41.9208 36.0448 38.3023 39.4006C34.6838 42.7565 29.9351 44.6279 25 44.6429C21.0612 44.6446 17.2129 43.4621 13.9546 41.249C10.6964 39.0359 8.17876 35.8943 6.72857 32.2322C6.6067 31.895 6.41836 31.5856 6.17472 31.3225C5.93108 31.0595 5.63709 30.848 5.31019 30.7006C4.98329 30.5533 4.63013 30.473 4.27165 30.4647C3.91317 30.4564 3.55667 30.5201 3.22328 30.6521C2.88989 30.7841 2.5864 30.9818 2.3308 31.2332C2.07521 31.4847 1.87271 31.785 1.73531 32.1162C1.59791 32.4474 1.52842 32.8028 1.53094 33.1614C1.53346 33.52 1.60796 33.8744 1.75 34.2036C3.89559 39.6087 7.85789 44.0971 12.9552 46.8964C18.0525 49.6958 23.966 50.6311 29.6784 49.5415C35.3908 48.4519 40.5449 45.4054 44.2538 40.9263C47.9628 36.4472 49.9947 30.8154 50 25.0001C50.0012 19.0435 47.8755 13.2822 44.0058 8.75386C40.1362 4.22548 34.7768 1.22758 28.8929 0.300053ZM22.0143 2.36077C22.1023 2.70174 22.1222 3.05673 22.0729 3.40541C22.0236 3.7541 21.906 4.08964 21.7269 4.39283C21.5478 4.69602 21.3106 4.96092 21.029 5.17236C20.7474 5.3838 20.4268 5.53763 20.0857 5.62505C19.1911 5.85582 18.314 6.1494 17.4607 6.50362C17.1359 6.6387 16.7877 6.70848 16.436 6.70898C16.0842 6.70948 15.7358 6.64069 15.4106 6.50655C15.0855 6.3724 14.7899 6.17552 14.5408 5.92714C14.2917 5.67877 14.094 5.38377 13.9589 5.05898C13.8239 4.73419 13.7541 4.38598 13.7536 4.03423C13.7531 3.68247 13.8219 3.33406 13.956 3.00889C14.0902 2.68372 14.287 2.38816 14.5354 2.13908C14.7838 1.88999 15.0788 1.69227 15.4036 1.5572C16.4821 1.10482 17.5988 0.731006 18.7536 0.435768C19.0943 0.34827 19.4489 0.328749 19.7972 0.378319C20.1455 0.427888 20.4806 0.545577 20.7834 0.724666C21.0862 0.903754 21.3507 1.14073 21.5619 1.42207C21.7731 1.70341 21.9268 2.02002 22.0143 2.36077ZM11.375 6.76434C11.8691 7.27411 12.1406 7.95917 12.1299 8.66902C12.1192 9.37887 11.8271 10.0554 11.3179 10.5501C9.98955 11.844 8.84766 13.3165 7.925 14.9251C7.75522 15.2392 7.52434 15.5162 7.24594 15.7398C6.96754 15.9635 6.64723 16.1292 6.30386 16.2272C5.96049 16.3252 5.60098 16.3536 5.24648 16.3107C4.89198 16.2677 4.54965 16.1543 4.23961 15.9772C3.92957 15.8 3.65808 15.5626 3.44111 15.279C3.22415 14.9954 3.06608 14.6713 2.9762 14.3257C2.88633 13.9801 2.86647 13.62 2.91778 13.2666C2.96909 12.9132 3.09055 12.5737 3.275 12.2679C4.44368 10.2202 5.89617 8.34805 7.58929 6.7072C8.09905 6.21309 8.78412 5.94157 9.49397 5.95228C10.2038 5.963 10.8804 6.25507 11.375 6.76434ZM3.27143 18.8572C3.97465 18.9563 4.60971 19.3307 5.037 19.8979C5.46428 20.4652 5.6488 21.1789 5.55 21.8822C5.42599 22.7997 5.36157 23.7242 5.35714 24.6501C5.35714 25.3605 5.07494 26.0418 4.57261 26.5441C4.07028 27.0464 3.38897 27.3286 2.67857 27.3286C1.96817 27.3286 1.28686 27.0464 0.784535 26.5441C0.282206 26.0418 0 25.3605 0 24.6501C0 23.4596 0.0821429 22.2881 0.246429 21.1358C0.345575 20.4325 0.719928 19.7975 1.28718 19.3702C1.85444 18.9429 2.56816 18.7584 3.27143 18.8572ZM16.0714 31.7215V18.2786C16.0718 17.6701 16.2276 17.0717 16.5241 16.5403C16.8206 16.0089 17.248 15.5621 17.7657 15.2422C18.2834 14.9224 18.8742 14.7401 19.4822 14.7127C20.0901 14.6853 20.6949 14.8137 21.2393 15.0858L34.6821 21.8072C35.2746 22.1041 35.7727 22.56 36.1208 23.1239C36.469 23.6878 36.6533 24.3374 36.6533 25.0001C36.6533 25.6627 36.469 26.3123 36.1208 26.8762C35.7727 27.4401 35.2746 27.896 34.6821 28.1929L21.2393 34.9143C20.6949 35.1864 20.0901 35.3148 19.4822 35.2874C18.8742 35.26 18.2834 35.0777 17.7657 34.7579C17.248 34.438 16.8206 33.9912 16.5241 33.4598C16.2276 32.9284 16.0718 32.33 16.0714 31.7215Z" fill="#333333"/>
</g>
<defs>
<clipPath id="clip0_24_79">
<rect width="50" height="50" fill="white"/>
</clipPath>
</defs>
</svg>
